<?xml version="1.0" encoding="utf-8"?>
<!-- Generator: Adobe Illustrator 26.0.0, SVG Export Plug-In . SVG Version: 6.00 Build 0)  -->
<svg version="1.1" id="Capa_1" xmlns="http://www.w3.org/2000/svg" xmlns:xlink="http://www.w3.org/1999/xlink" x="0px" y="0px"
	 viewBox="0 0 792 612" style="enable-background:new 0 0 792 612;" xml:space="preserve">
<style type="text/css">
	.st0{fill:#FFFFFF;}
</style>
<path class="st0" d="M449.89,291.29c-0.08,0.04-0.16,0.07-0.24,0.11c-4.14,2.06-5.6,7.87-7.57,11.67
	c-2.69,5.21-5.65,10.3-9.34,14.87c-20.89,25.9-63.95,9.66-57.74-24.85c1.63-9.03,6.99-17.06,14.05-22.79
	c7.89-6.42,24.23-7.62,26.29-19.39c3.2-18.25-13.55-35.55-26.91-45.42c-16.39-12.11-38.09-17.09-58.15-13.92
	c-30.08,4.76-55.32,27.89-64.05,56.87c-0.49,1.63-1.93,3.7-3.36,2.78c-0.35-0.23-0.58-0.61-0.74-1c-0.56-1.39-0.34-2.96-0.08-4.44
	c3.95-22.41,16.43-43.2,34.34-57.22c35.89-28.09,85.96-24.56,119.84,4.83c13.76,11.94,24.25,27.85,28.11,45.79
	c1.16,5.4,3,11.12,7.47,14.37c4.65,3.38,11.11,3.27,16.5,4.62c38.55,9.66,69.02,45.76,68.79,86.03
	c-0.22,39.68-27.17,76.74-63.27,91.79c-20.28,8.46-42.39,11.45-64.28,13.36c-50.73,4.44-101.93,3.5-152.46-2.79
	c18.37-2.77,36.78-5.23,55.24-7.36c17.59-2.04,36.04-5.37,53.76-5.37c12.87,0,26.48-2.23,39.21-4.07
	c13.06-1.89,25.86-4.78,38.29-9.25c36.48-13.13,74.52-55.04,55.94-95.8c-7.53-16.52-22.61-28.68-40.28-32.74
	C456.37,291.3,452.67,290.09,449.89,291.29z"/>
</svg>
